<?xml version="1.0" standalone="no"?>
<!DOCTYPE svg PUBLIC "-//W3C//DTD SVG 20010904//EN"
 "http://www.w3.org/TR/2001/REC-SVG-20010904/DTD/svg10.dtd">
<svg version="1.0" xmlns="http://www.w3.org/2000/svg"
 width="220.000000pt" height="285.000000pt" viewBox="0 0 220.000000 285.000000"
 preserveAspectRatio="xMidYMid meet">

<g transform="translate(0.000000,285.000000) scale(0.100000,-0.100000)"
fill="#000000" stroke="none">
<path d="M868 2733 c-41 -47 -49 -103 -23 -153 19 -36 7 -39 -23 -7 -25 26
-42 76 -42 121 0 28 -1 29 -20 11 -11 -10 -22 -26 -26 -37 -5 -15 -8 -17 -20
-7 -20 16 -63 -14 -84 -59 -11 -22 -20 -30 -32 -26 -29 9 -59 -15 -80 -63 -18
-42 -19 -63 -2 -107 5 -13 1 -15 -25 -10 -26 6 -31 4 -31 -13 0 -35 43 -87 91
-111 67 -33 147 -32 199 2 44 29 52 47 18 39 -19 -3 -17 -1 7 14 17 9 34 16
39 15 4 -2 14 2 21 8 10 8 14 7 17 -2 4 -10 11 -8 31 5 15 10 28 13 32 7 4 -6
13 -5 24 2 22 14 74 -9 79 -35 5 -24 -25 -33 -47 -13 -10 9 -21 16 -24 16 -12
0 -7 -76 5 -88 23 -23 85 -14 119 16 l31 27 -49 61 c-63 80 -87 97 -137 98
-31 1 -55 -7 -92 -31 -67 -43 -114 -44 -155 -4 -16 16 -29 36 -29 45 0 13 8
11 46 -9 47 -25 79 -30 122 -19 23 7 23 7 -10 35 l-33 29 45 -6 45 -7 -20 24
c-12 13 -27 32 -34 42 -13 16 -12 17 12 8 14 -5 34 -10 44 -10 10 0 31 -3 46
-7 26 -6 28 -5 22 19 -8 30 26 114 49 123 26 10 18 27 -9 20 -23 -6 -25 -4
-19 19 7 27 -12 35 -34 13 -9 -9 -12 -8 -12 5 0 22 -13 22 -32 0z m-228 -328
c0 -9 -6 -12 -15 -9 -22 9 -19 -19 7 -51 l21 -28 -21 12 c-36 19 -69 101 -55
137 5 15 10 13 35 -15 15 -17 28 -38 28 -46z m87 -101 c-3 -3 -12 -4 -19 -1
-8 3 -5 6 6 6 11 1 17 -2 13 -5z"/>
<path d="M1025 2708 c-48 -41 -75 -97 -75 -152 0 -37 5 -48 31 -70 17 -14 38
-26 47 -26 16 1 15 2 0 14 -20 15 -25 31 -6 20 8 -5 9 -2 5 10 -6 14 -3 16 16
10 12 -3 29 -10 37 -15 13 -7 12 -8 -2 -9 -21 0 -24 -20 -6 -38 9 -9 6 -12
-17 -12 -28 0 -28 0 -9 -22 17 -19 17 -21 1 -15 -25 9 -8 -19 40 -66 35 -33
99 -64 111 -53 2 3 -2 20 -9 40 -10 28 -10 42 1 75 19 58 4 84 -70 121 -34 17
-64 38 -67 46 -5 13 -7 13 -14 2 -7 -10 -9 -10 -9 3 0 26 12 30 32 12 19 -17
19 -16 12 12 -4 17 -8 31 -9 33 -2 2 3 27 11 55 8 29 14 53 14 55 0 12 -36 -4
-65 -30z"/>
<path d="M1096 2686 c-23 -50 -9 -91 50 -145 24 -23 44 -45 44 -50 0 -24 31
-15 68 19 31 28 42 45 42 67 0 40 -54 108 -85 108 -13 1 -30 7 -39 14 -17 14
-16 15 -29 -29 -3 -10 -9 -3 -19 19 l-14 35 -18 -38z"/>
<path d="M1294 2670 c44 -47 57 -82 36 -95 -16 -10 -1 -25 17 -18 12 5 9 -4
-10 -29 -30 -39 -35 -63 -11 -54 29 11 3 -14 -52 -49 -62 -40 -72 -61 -17 -39
22 10 51 14 70 11 27 -5 33 -3 31 10 -2 11 11 19 40 28 61 19 82 40 82 86 0
25 8 47 25 67 30 35 17 52 -20 28 -24 -16 -25 -15 -31 9 -9 37 -56 72 -114 84
-94 20 -98 17 -46 -39z"/>
<path d="M1510 2495 c0 -42 -27 -73 -71 -82 -22 -4 -27 -8 -17 -14 22 -15 54
-10 82 12 14 11 26 17 27 12 0 -4 4 2 10 15 6 16 4 34 -6 58 -18 43 -25 43
-25 -1z"/>
<path d="M1558 2471 c4 -43 1 -53 -21 -75 -23 -23 -34 -26 -99 -26 -40 0 -90
4 -110 9 -32 7 -42 5 -69 -15 -42 -31 -49 -42 -48 -79 1 -19 3 -23 6 -11 4 15
7 16 14 5 7 -12 10 -12 18 -1 6 11 10 9 14 -7 5 -22 41 -29 52 -11 3 6 16 10
28 9 20 -1 20 -2 -3 -8 l-25 -8 25 -12 c14 -7 39 -32 55 -55 17 -22 41 -42 53
-44 21 -3 21 -2 -6 26 -15 17 -38 45 -51 64 l-25 33 30 -27 c17 -16 39 -28 51
-28 39 0 84 -165 66 -244 -11 -47 -7 -55 16 -33 11 10 12 7 6 -13 -10 -34 -33
-50 -72 -50 -18 0 -57 -9 -87 -20 -81 -31 -88 -54 -52 -192 16 -59 26 -114 23
-123 -4 -8 -24 -26 -47 -40 -33 -21 -40 -30 -40 -58 l1 -32 23 28 c20 25 25
27 51 17 16 -6 39 -9 52 -5 18 4 27 -3 48 -38 14 -24 25 -57 25 -73 -1 -60
-66 -167 -125 -204 -24 -15 -47 -18 -110 -17 -79 2 -82 4 -194 67 -131 75
-234 165 -271 236 -14 27 -26 51 -28 54 -7 10 -22 -27 -22 -55 0 -35 13 -55
89 -145 51 -59 53 -62 18 -35 -21 15 -42 37 -48 47 -5 10 -14 16 -18 13 -13
-7 6 -93 29 -130 24 -39 91 -102 149 -140 22 -15 41 -28 41 -29 0 -1 -48 -2
-107 -2 -60 1 -126 -3 -147 -8 l-39 -9 7 67 c4 37 18 113 31 169 14 55 22 103
19 106 -11 11 -112 -108 -163 -192 -64 -107 -127 -177 -185 -208 -25 -13 -46
-27 -46 -30 0 -16 54 -52 91 -60 49 -11 106 -6 227 22 122 28 212 25 212 -7 0
-10 -15 -14 -55 -14 -40 0 -55 -4 -55 -14 0 -18 22 -26 68 -26 50 0 29 -19
-34 -31 -55 -10 -64 -17 -44 -29 11 -7 1 -10 -32 -10 -27 0 -48 -4 -48 -10 0
-5 4 -10 9 -10 5 0 27 -25 50 -55 52 -69 72 -70 131 -10 24 25 53 45 65 45 17
0 15 -5 -15 -30 -46 -38 -24 -38 45 1 50 28 55 29 55 12 0 -10 -15 -43 -34
-73 -40 -64 -37 -81 5 -30 18 21 29 28 29 19 0 -9 9 -24 19 -33 19 -17 19 -16
14 23 -4 28 1 56 18 96 l23 56 -32 29 c-18 16 -32 38 -32 49 0 25 -6 26 -27 6
-19 -19 -43 -3 -43 28 0 20 -1 20 -25 -3 l-25 -23 0 32 c0 44 51 133 70 121
12 -8 13 -15 3 -41 l-12 -32 29 28 c36 35 66 28 55 -12 l-6 -26 35 26 c64 49
77 27 21 -34 -19 -22 -35 -48 -35 -59 0 -30 16 -24 30 10 24 57 38 57 123 -2
16 -11 22 -9 45 19 15 17 40 63 55 102 16 38 37 77 48 87 25 22 24 37 -1 29
-32 -10 -24 8 46 102 37 48 76 107 87 131 12 23 24 42 27 42 20 0 64 -67 89
-136 50 -139 61 -123 -86 -126 -118 -3 -128 -4 -125 -21 4 -21 -52 -159 -79
-199 -12 -16 -42 -35 -75 -48 -121 -45 -135 -62 -160 -203 -23 -128 -139 -347
-183 -347 -21 0 -11 65 20 130 l30 65 -27 22 c-28 22 -28 23 -16 68 7 26 10
51 7 56 -8 12 -42 12 -50 -1 -3 -5 1 -10 9 -10 22 0 20 -22 -4 -53 -24 -30
-24 -34 -5 -53 23 -23 18 -59 -11 -94 -20 -23 -24 -34 -15 -43 18 -18 13 -41
-20 -86 -17 -24 -28 -45 -25 -48 8 -9 338 45 456 74 154 37 159 41 115 99
l-25 33 53 5 c28 3 70 7 92 9 49 3 54 18 26 81 -38 81 -23 87 49 20 27 -25 53
-43 58 -40 14 8 78 144 134 281 l49 120 0 136 c0 84 -5 147 -12 163 -7 14 -44
48 -83 75 -56 38 -78 62 -100 103 -16 29 -37 62 -47 73 -17 19 -17 26 7 190
20 135 25 198 22 305 -3 126 -6 139 -33 195 -20 39 -45 71 -75 93 -60 45 -71
65 -33 56 52 -12 121 -45 143 -69 26 -28 53 -98 39 -103 -5 -2 -16 2 -25 8
-25 21 -25 5 -1 -31 15 -23 47 -46 97 -71 47 -24 68 -39 59 -43 -9 -3 -28 -1
-44 5 -39 15 -41 7 -5 -24 31 -25 31 -26 8 -26 -13 0 -29 5 -36 12 -9 9 -10
-1 -7 -43 l5 -54 -26 73 c-14 39 -30 72 -35 72 -5 0 -9 -30 -9 -66 0 -94 -20
-299 -35 -356 -8 -31 -8 -48 -2 -48 22 0 76 51 96 92 l22 43 -3 -57 -3 -57 24
22 c13 12 32 40 42 62 10 22 19 32 19 22 0 -15 3 -15 20 -5 62 39 65 212 5
278 -16 18 -15 19 12 34 16 8 35 22 42 30 11 13 11 16 -3 16 -20 0 -20 -1 -1
43 8 20 15 38 15 41 0 2 -18 2 -40 -1 l-40 -6 0 51 c0 65 -13 99 -55 142 -31
32 -33 38 -26 71 10 44 3 95 -15 110 -11 9 -14 8 -14 -2 -1 -8 -6 -27 -13 -42
-12 -27 -12 -26 -13 23 0 33 -6 56 -17 68 -13 12 -17 13 -17 2 0 -9 -7 -7 -23
8 -13 12 -26 22 -29 22 -3 0 -3 -22 0 -49z m-152 -163 l19 -22 -25 17 c-33 23
-62 21 -94 -4 -17 -13 -24 -15 -20 -6 14 38 92 48 120 15z m109 -509 c12 -18
0 -19 -46 -5 l-44 14 42 1 c23 1 45 -4 48 -10z m-88 -69 c9 0 25 7 35 17 10 9
18 11 18 6 0 -6 -7 -16 -15 -23 -13 -11 -13 -14 0 -27 8 -8 15 -23 15 -35 0
-30 23 -16 36 22 10 31 11 32 17 9 12 -44 7 -74 -23 -133 -17 -32 -30 -67 -30
-78 0 -11 -5 -29 -11 -40 -10 -19 -17 -9 -65 92 -30 62 -54 114 -54 116 0 2 7
1 17 -3 14 -5 15 -1 10 25 -4 17 -2 34 4 38 7 4 6 10 -1 19 -8 10 -7 14 2 18
7 2 17 -2 21 -9 4 -8 15 -14 24 -14z m-582 -999 c-12 -12 -65 -26 -65 -17 0 3
15 10 33 15 43 12 42 12 32 2z"/>
<path d="M447 2333 c-4 -3 -7 -17 -7 -30 0 -29 -16 -30 -25 -2 -10 31 -25 5
-25 -44 0 -43 25 -111 38 -103 5 3 14 -12 20 -32 7 -21 22 -48 35 -60 27 -25
97 -42 97 -23 0 7 9 9 23 6 18 -5 32 4 67 42 25 26 58 57 74 69 32 23 28 44
-7 44 -21 1 -22 1 -3 15 31 24 10 30 -62 18 -93 -16 -115 -9 -171 53 -26 30
-51 51 -54 47z"/>
<path d="M870 2312 c0 -26 -7 -27 -31 -6 -33 30 -54 -12 -25 -51 12 -16 11
-22 -4 -44 -10 -15 -21 -37 -25 -50 -6 -19 -4 -23 9 -18 11 5 16 1 16 -14 0
-16 6 -13 32 17 18 21 49 45 70 54 28 12 34 20 27 31 -5 8 -9 32 -9 54 0 28
-3 36 -10 25 -7 -12 -12 -12 -29 4 -21 19 -21 19 -21 -2z"/>
<path d="M306 2178 c-28 -65 -13 -148 32 -180 20 -13 19 -15 -23 -37 -28 -15
-47 -33 -54 -52 -8 -23 -7 -29 4 -29 8 0 17 5 20 10 15 24 31 9 27 -22 -4 -29
-3 -31 11 -20 13 11 16 10 19 -10 3 -20 6 -18 28 20 28 49 68 77 124 88 34 6
38 5 33 -10 -4 -9 -10 -23 -14 -33 -5 -14 -1 -15 28 -9 78 15 161 74 218 155
l24 33 -39 -20 c-22 -11 -59 -25 -84 -32 -24 -7 -55 -23 -67 -36 -12 -13 -33
-24 -46 -24 -40 0 -103 64 -144 146 -31 63 -38 72 -47 57 -9 -16 -11 -15 -22
12 l-12 30 -16 -37z"/>
<path d="M675 1940 c-16 -16 -37 -30 -47 -30 -22 0 -23 -9 -2 -39 14 -19 23
-22 52 -17 49 8 82 41 82 84 0 33 -1 34 -18 19 -23 -21 -33 -22 -26 -2 10 24
-10 17 -41 -15z"/>
<path d="M764 1848 c-45 -77 -52 -83 -84 -86 l-35 -2 37 20 c33 18 58 46 58
65 0 3 -9 1 -19 -5 -47 -25 -141 -1 -141 36 0 8 -4 14 -10 14 -5 0 -10 -5 -10
-10 0 -6 -6 -10 -12 -8 -7 1 -26 -10 -41 -24 -24 -22 -27 -30 -17 -47 15 -29
42 -41 97 -42 l48 -1 -45 -11 c-25 -6 -48 -15 -51 -20 -4 -5 -18 -9 -33 -9
-14 0 -26 -4 -26 -9 0 -14 47 -22 95 -17 44 5 44 5 29 -17 -19 -30 -44 -40
-44 -18 0 12 -3 13 -15 3 -8 -6 -19 -9 -24 -6 -14 9 -70 -16 -111 -49 l-35
-29 34 36 c18 20 47 42 62 49 31 12 39 29 15 29 -22 0 -46 40 -46 76 0 17 11
52 24 77 23 46 16 62 -13 35 -11 -11 -11 -9 -2 9 17 33 14 37 -16 18 -41 -26
-63 -56 -63 -90 0 -22 -3 -26 -10 -15 -13 20 -23 6 -22 -30 0 -24 -2 -29 -14
-22 -9 5 -24 22 -36 38 l-20 29 5 -48 c5 -47 4 -47 -14 -31 -11 10 -22 15 -25
11 -11 -11 17 -77 42 -96 l25 -20 -23 -3 c-22 -4 -22 -5 6 -16 19 -9 26 -17
22 -28 -5 -12 -2 -15 10 -10 13 5 15 1 10 -19 -7 -27 8 -65 24 -65 6 0 10 12
10 28 0 15 4 33 9 41 7 10 9 6 8 -15 -1 -16 1 -29 4 -29 3 0 20 -17 38 -37 21
-24 48 -42 74 -49 70 -19 172 4 206 45 12 14 10 16 -8 16 -12 0 -33 11 -46 25
-20 19 -25 34 -25 72 0 57 13 84 31 66 9 -9 17 -4 33 20 12 18 25 30 28 27 3
-3 15 4 27 14 24 21 28 10 7 -19 -8 -11 -19 -16 -30 -12 -37 14 -48 -113 -11
-139 23 -17 67 4 59 29 -3 9 0 17 6 17 7 0 5 8 -4 22 -18 25 -22 78 -6 78 26
0 45 56 50 147 3 51 4 93 4 93 -1 0 -24 -37 -50 -82z m-252 -220 c-7 -7 -12
-8 -12 -2 0 14 12 26 19 19 2 -3 -1 -11 -7 -17z"/>
<path d="M959 1830 c-19 -10 -41 -25 -48 -34 -11 -13 -9 -14 21 -6 18 6 53 10
78 9 l45 -1 -35 -13 c-19 -7 -46 -14 -59 -14 -19 -1 -21 -4 -12 -15 9 -11 9
-15 -1 -19 -7 -3 2 -6 20 -6 18 -1 42 3 52 9 13 7 21 6 30 -5 16 -20 39 -19
62 2 21 19 31 14 22 -11 -3 -9 -17 -19 -30 -22 -31 -8 -31 -22 0 -30 46 -11
119 46 85 67 -11 6 -7 11 16 19 18 6 31 18 31 28 1 9 5 26 9 37 8 19 8 19 -12
3 -25 -23 -41 -23 -103 2 -63 25 -124 25 -171 0z"/>
<path d="M1106 1538 c-16 -20 -21 -34 -14 -37 6 -2 17 3 23 12 10 14 13 14 27
1 13 -13 14 -11 14 21 -1 44 -17 45 -50 3z"/>
<path d="M1197 1513 c-30 -8 -8 -23 34 -23 40 0 52 13 23 24 -17 6 -29 6 -57
-1z"/>
<path d="M1220 1388 c-30 -5 -66 -7 -80 -4 -14 3 -32 1 -40 -4 -30 -19 3 -23
94 -12 52 7 109 12 127 12 27 0 30 -2 19 -15 -8 -9 -30 -15 -59 -15 -41 0 -50
-4 -69 -30 l-23 -30 78 0 c43 0 84 -4 92 -9 17 -11 71 15 71 34 0 8 -9 23 -21
33 -17 17 -18 20 -5 25 64 25 -66 35 -184 15z"/>
</g>
</svg>
